<?xml version="1.0" standalone="no"?>
<!DOCTYPE svg PUBLIC "-//W3C//DTD SVG 20010904//EN"
 "http://www.w3.org/TR/2001/REC-SVG-20010904/DTD/svg10.dtd">
<svg version="1.0" xmlns="http://www.w3.org/2000/svg"
 width="131.000000pt" height="100.000000pt" viewBox="0 0 131.000000 100.000000"
 preserveAspectRatio="xMidYMid meet">

<g transform="translate(0.000000,100.000000) scale(0.100000,-0.100000)"
fill="#000000" stroke="none">
<path d="M1050 970 c-21 -39 -41 -242 -38 -382 2 -75 0 -139 -4 -143 -4 -4
-20 8 -36 27 -29 31 -34 33 -100 33 -76 0 -105 -14 -145 -67 -25 -33 -26 -91
-3 -117 43 -47 153 -35 182 20 20 40 11 77 -21 85 -28 7 -55 0 -55 -15 0 -5
11 -12 25 -15 51 -13 16 -76 -42 -76 -109 0 -62 155 51 167 40 5 48 2 76 -25
16 -17 30 -38 30 -46 0 -9 7 -16 15 -16 10 0 15 -11 15 -35 0 -49 33 -69 102
-63 42 4 57 11 80 37 66 74 7 160 -91 131 -19 -5 -36 -8 -38 -7 -1 2 29 81 67
176 39 95 70 180 70 187 0 8 -9 14 -20 14 -12 0 -20 -7 -20 -17 0 -20 -88
-244 -102 -258 -12 -13 -2 161 18 299 8 55 14 105 14 113 0 20 -18 16 -30 -7z
m114 -562 c8 -23 6 -32 -14 -53 -42 -45 -120 -26 -120 28 0 30 46 58 90 54 28
-2 37 -7 44 -29z"/>
<path d="M165 896 c-63 -29 -125 -119 -125 -182 0 -61 23 -105 83 -157 119
-105 137 -124 137 -149 0 -45 -69 -88 -142 -88 -35 0 -35 4 2 38 37 34 47 73
25 96 -17 17 -52 21 -71 8 -23 -15 -64 -86 -64 -111 0 -39 12 -50 61 -57 72
-10 158 13 196 51 60 60 42 107 -75 195 -113 86 -141 149 -104 233 26 58 71
89 136 94 l51 4 -25 -18 c-69 -49 -90 -100 -66 -158 17 -39 42 -55 86 -55 71
0 118 58 108 132 -4 27 -1 32 28 44 100 42 222 -27 254 -142 8 -26 11 -73 8
-113 -9 -128 -90 -224 -199 -238 l-44 -6 33 28 c65 54 63 115 -3 115 -27 0
-39 -7 -60 -34 -31 -41 -43 -99 -25 -121 27 -33 161 -9 225 40 22 16 35 21 35
13 -2 -79 -30 -291 -40 -303 -16 -19 -94 -20 -148 -1 -25 9 -44 11 -47 5 -11
-16 5 -28 57 -44 59 -17 106 -19 142 -5 35 13 51 74 71 272 9 90 23 185 31
212 28 97 13 207 -37 275 -48 65 -185 108 -260 82 -30 -10 -35 -9 -66 21 -26
26 -42 32 -85 35 -32 2 -65 -2 -83 -11z m147 -77 c-7 -59 -6 -72 6 -76 6 -3
12 2 12 11 0 9 5 16 10 16 13 0 13 -31 0 -65 -25 -67 -130 -39 -130 35 0 33
28 78 58 94 35 19 48 15 44 -15z m-199 -403 c7 -17 -39 -66 -60 -66 -11 0 -11
4 -2 23 15 28 40 57 49 57 5 0 10 -6 13 -14z m347 -15 c0 -19 -43 -61 -61 -61
-14 0 -11 12 11 48 22 35 50 43 50 13z"/>
<path d="M1254 325 c-8 -19 12 -36 33 -28 19 7 12 37 -10 41 -9 2 -20 -4 -23
-13z"/>
</g>
</svg>
